<svg width="128" height="81" viewBox="0 0 128 81" fill="none" xmlns="http://www.w3.org/2000/svg">
<path d="M31.8976 18.7414C8.63111 18.7414 0 33.8138 0 49.6876C0 68.4332 27.8104 68.0852 30.7718 56.9691C35.7025 72.2604 74.5995 70.6947 72.6139 55.5128C75.9148 69.6509 118.382 75.651 126.274 55.5128C132.605 39.3589 119.91 29.8941 114.106 31.379C119.722 18.4123 97.8804 8.44984 91.2849 11.8179C87.6532 6.16278 82.1387 1.62988 62.4466 1.62988C42.7546 1.62988 33.8756 13.0375 31.8976 18.7414Z" fill="white"/>
<circle cx="25.6277" cy="64.0696" r="15.9143" stroke="black" stroke-width="2"/>
<path d="M99.4902 48.1553C108.435 48.1554 115.66 55.2944 115.66 64.0693C115.66 72.8443 108.435 79.9842 99.4902 79.9844C90.5452 79.9844 83.3193 72.8444 83.3193 64.0693C83.3195 55.2943 90.5453 48.1553 99.4902 48.1553Z" stroke="black" stroke-width="2"/>
<path d="M38.8427 31.2355L12.6959 20.81L37.8524 1.20913L51.9413 6.82679L38.8427 31.2355Z" stroke="black" stroke-width="2"/>
</svg>
